<?xml version="1.0" encoding="UTF-8" standalone="no"?>
<svg
   xmlns:dc="http://purl.org/dc/elements/1.1/"
   xmlns:cc="http://creativecommons.org/ns#"
   xmlns:rdf="http://www.w3.org/1999/02/22-rdf-syntax-ns#"
   xmlns:svg="http://www.w3.org/2000/svg"
   xmlns="http://www.w3.org/2000/svg"
   xmlns:sodipodi="http://sodipodi.sourceforge.net/DTD/sodipodi-0.dtd"
   xmlns:inkscape="http://www.inkscape.org/namespaces/inkscape"
   id="svg2006"
   style="clip-rule:evenodd;fill-rule:evenodd;image-rendering:optimizeQuality;shape-rendering:geometricPrecision;text-rendering:geometricPrecision"
   height="1192"
   width="3409.7522"
   version="1.1"
   sodipodi:docname="Shelter9.svg"
   inkscape:version="0.92.5 (2060ec1f9f, 2020-04-08)">
  <sodipodi:namedview
     pagecolor="#ffffff"
     bordercolor="#666666"
     borderopacity="1"
     objecttolerance="10"
     gridtolerance="10"
     guidetolerance="10"
     inkscape:pageopacity="0"
     inkscape:pageshadow="2"
     inkscape:window-width="1440"
     inkscape:window-height="900"
     id="namedview178"
     showgrid="false"
     inkscape:zoom="0.19223919"
     inkscape:cx="1609.2172"
     inkscape:cy="-556.84177"
     inkscape:window-x="0"
     inkscape:window-y="0"
     inkscape:window-maximized="1"
     inkscape:current-layer="svg2006"
     showguides="true"
     inkscape:guide-bbox="true">
    <sodipodi:guide
       position="905.7729,106.6697"
       orientation="0,1"
       id="guide1388"
       inkscape:locked="false" />
  </sodipodi:namedview>
  <metadata
     id="metadata2012">
    <rdf:RDF>
      <cc:Work
         rdf:about="">
        <dc:format>image/svg+xml</dc:format>
        <dc:type
           rdf:resource="http://purl.org/dc/dcmitype/StillImage" />
        <dc:title></dc:title>
      </cc:Work>
    </rdf:RDF>
  </metadata>
  <defs
     id="defs2010" />
  <g
     transform="translate(0.50000235,176.5)"
     style="fill:#375ea8;fill-opacity:1"
     id="g1544" />
  <g
     style="fill:#375ea8;fill-opacity:1"
     transform="translate(0.50000235,176.5)"
     id="g1548">
    <path
       d="m 207.5,33.5 c 10.569,0.6877 20.569,3.5211 30,8.5 28.031,14.029 50.364,34.3623 67,61 29.51,16.51 54.344,38.344 74.5,65.5 4.577,7.728 7.577,16.061 9,25 0.591,24.299 6.258,47.299 17,69 23.768,35.691 49.602,69.858 77.5,102.5 63.377,7.733 120.377,30.733 171,69 42.374,34.234 70.54,77.734 84.5,130.5 5.707,36.936 4.373,73.603 -4,110 -21.129,77.329 -57.963,145.829 -110.5,205.5 -3.953,2.81 -8.287,4.81 -13,6 -94.343,0.317 -188.676,-0.517 -283,-2.5 1.633,-11.482 7.967,-19.315 19,-23.5 9.37,-3.395 19.037,-5.395 29,-6 20.359,-0.537 40.692,-1.537 61,-3 8.23,-0.294 15.23,-3.294 21,-9 -23.433,0.189 -44.433,-6.811 -63,-21 -40.19,-31.193 -64.357,-72.027 -72.5,-122.5 -3.891,-51.885 15.442,-90.885 58,-117 -30.493,9.826 -51.16,29.826 -62,60 -8.804,25.633 -11.804,51.966 -9,79 3.599,17.429 3.266,34.762 -1,52 -10.943,26.22 -21.61,52.553 -32,79 -4.107,12.06 -10.607,22.56 -19.5,31.5 -7.203,3.646 -14.87,5.146 -23,4.5 -18.672,-0.504 -37.339,-1.17 -56,-2 -8.335,-8.363 -11.168,-18.363 -8.5,-30 3.63,-8.295 9.797,-13.795 18.5,-16.5 12.54,-4.317 25.374,-5.484 38.5,-3.5 4.716,0.215 8.049,-1.785 10,-6 2.997,-18.596 3.331,-37.263 1,-56 -6.151,-61.76 -19.817,-121.76 -41,-180 -11.608,-35.442 -19.275,-71.775 -23,-109 -0.775,-8.048 -0.442,-16.048 1,-24 4.035,-20.142 8.702,-40.142 14,-60 2.137,-27.676 4.304,-55.343 6.5,-83 -43.823,-0.831 -73.157,-21.831 -88,-63 4.966,-7.5 11.3,-13.666 19,-18.5 2.209,-1.873 4.042,-4.04 5.5,-6.5 0.333,-17 0.667,-34 1,-51 7.466,-20.48 19.966,-37.314 37.5,-50.5 13.857,-8.43 28.19,-16.097 43,-23 2.5,-1.833 5,-3.667 7.5,-5.5 0.667,-4 0.667,-8 0,-12 -4.51,-17.0133 -9.01,-34.0133 -13.5,-51 0.185,-1.0837 0.518,-2.0837 1,-3 z m -1,-25 c 18.988,1.7182 36.655,7.5516 53,17.5 16.851,9.1718 31.685,21.0052 44.5,35.5 6.38,8.2578 12.88,16.4245 19.5,24.5 29.397,16.965 54.231,39.132 74.5,66.5 7.772,11.803 12.439,24.803 14,39 1.187,10.687 2.521,21.353 4,32 1.548,5.149 3.382,10.149 5.5,15 -0.826,0.951 -0.992,1.951 -0.5,3 23.963,33.815 47.796,67.815 71.5,102 43.503,4.543 85.503,15.043 126,31.5 95.957,42.325 149.124,115.825 159.5,220.5 3.98,71.411 -10.686,138.744 -44,202 -22.594,41.442 -50.761,78.776 -84.5,112 -22.667,0.333 -45.333,0.667 -68,1 -92.33,-1.315 -184.663,-2.315 -277,-3 -7.5,-35.858 5.833,-59.691 40,-71.5 15.092,-3.758 30.425,-5.758 46,-6 -17.964,-9.284 -33.63,-21.617 -47,-37 -9.403,-5.906 -16.903,-4.072 -22.5,5.5 -13.065,29.127 -24.731,58.794 -35,89 -7.476,11.82 -17.976,19.32 -31.5,22.5 -26.333,0.667 -52.667,0.667 -79,0 -7.583,-0.898 -13.749,-4.398 -18.5,-10.5 -13.238,-17.33 -16.238,-36.33 -9,-57 7.74,-14.304 19.573,-23.471 35.5,-27.5 8.09,-2.793 16.423,-4.126 25,-4 1.025,-2.071 1.858,-4.238 2.5,-6.5 -1.58,-54.82 -9.247,-108.82 -23,-162 -19.4,-49.266 -32.4,-100.266 -39,-153 -0.667,-8.667 -0.667,-17.333 0,-26 4.679,-23.08 9.679,-46.08 15,-69 1.472,-17.169 2.972,-34.336 4.5,-51.5 -0.129,-1.981 -0.796,-3.647 -2,-5 -32.434,-6.129 -56.601,-23.629 -72.5,-52.5 -5.5367,-9.733 -9.37,-20.066 -11.5,-31 0.4845,-6.951 2.6511,-13.285 6.5,-19 5.3648,-5.699 11.031,-11.033 17,-16 0.333,-12.667 0.667,-25.333 1,-38 1.51,-7.041 3.177,-14.041 5,-21 12.316,-24.116 29.816,-43.616 52.5,-58.5 9.853,-5.2004 19.686,-10.3671 29.5,-15.5 -2.842,-13.7016 -6.175,-27.3683 -10,-41 -4.538,-19.9127 2.962,-32.2461 22.5,-37 z"
       style="opacity:1;fill:#375ea8;fill-opacity:1"
       id="path1546" />
  </g>
  <g
     transform="translate(0.50000235,176.5)"
     id="g1648" />
  <g
     transform="translate(0.50000235,176.5)"
     id="g1672" />
  <g
     id="svgg"
     transform="matrix(1.2385215,0,0,1.2385215,1132.7843,359.5528)"
     style="fill:#143b5e;fill-opacity:1">
    <path
       id="path2"
       d=""
       style="fill:#143b5e;fill-opacity:1;fill-rule:evenodd;stroke:none" />
    <path
       id="path3"
       d=""
       style="fill:#143b5e;fill-opacity:1;fill-rule:evenodd;stroke:none" />
    <path
       id="path4"
       d=""
       style="fill:#143b5e;fill-opacity:1;fill-rule:evenodd;stroke:none" />
    <path
       style="fill:#143b5e;fill-opacity:1;stroke:none;stroke-width:0.78975737"
       id="Sélection"
       d="m -483.82087,299.38964 c 6.91828,-0.85294 14.60262,-0.3159 21.32345,1.57951 37.1186,10.47219 49.84159,55.93062 25.33542,84.94631 -4.90439,5.79682 -10.63804,9.91935 -17.43784,13.22844 -8.12661,3.95668 -15.55033,5.04655 -24.48249,4.94388 -35.44431,-0.41857 -59.30288,-37.58456 -47.62237,-70.28841 6.96566,-19.51491 22.87137,-31.13224 42.88383,-34.40973 z m -20.8338,-39.13249 c 5.97056,-1.71376 12.33601,-2.61409 18.46453,-3.68816 0,0 11.84636,0 11.84636,0 0,0.008 7.24997,-25.43809 7.24997,-25.43809 0,0 40.85415,11.35671 40.85415,11.34092 0,0 -6.38124,24.91685 -6.39703,24.79838 8.1345,4.2331 15.66089,9.62715 22.26326,16.01628 0.9714,0.93982 1.91911,1.90332 2.85102,2.87472 -0.008,0.008 22.91876,-12.52555 22.92667,-12.52555 -0.008,0 21.10231,36.32884 21.10231,36.32884 0,0 -22.32644,13.96291 -22.31065,13.92343 2.96949,10.10889 4.20941,20.59687 3.79084,30.99797 -0.0316,0.0632 25.00372,6.55499 24.93264,6.62607 -0.0395,-0.0711 -7.87388,33.75423 -10.71701,41.06738 -0.0316,-0.10267 -24.92474,-6.8393 -24.92474,-6.85509 -4.68326,9.1059 -10.85916,17.53261 -18.45663,24.82208 -0.0316,0.079 12.05959,22.78449 11.95692,22.63444 0.0553,0.15005 -36.57366,21.41822 -36.51838,21.37084 -0.0553,0 -13.37849,-21.76572 -13.49695,-21.85259 -10.29054,3.07215 -20.70744,4.16992 -32.21421,4.03566 0,0 -6.01795,25.02741 -6.07323,25.0748 0,0 -40.3724,-10.95394 -40.42769,-10.95394 0.10267,0.14216 6.07324,-25.32752 6.03375,-25.25644 -9.49288,-5.07814 -17.888,-11.62523 -24.96423,-19.24639 0,0 -22.37383,13.14946 -22.37383,13.14946 0,0.008 -20.77062,-36.51838 -20.77852,-36.51838 0.008,-0.008 21.86049,-13.23633 21.85259,-13.23633 -3.20641,-10.21157 -4.71485,-20.99965 -4.28838,-31.9141 0.008,0.0237 -24.92475,-6.33385 -24.93264,-6.34965 0.0316,0.0158 10.34582,-40.80677 10.33792,-40.78307 0.008,0.0553 25.7224,6.1759 25.75399,6.20749 4.96757,-9.39811 11.36461,-17.76954 18.96998,-24.89316 0.0474,0.0711 -12.65192,-22.72922 -12.65192,-22.7529 0.008,0 19.04895,-11.15138 36.62105,-20.72324 0.0316,-0.0158 13.73388,21.72623 13.71809,21.71832 z" />
  </g>
  <g
     style="fill:#143b5e;fill-opacity:1"
     transform="matrix(-0.87392013,-0.22263231,0.22263231,-0.87392013,-149.66279,810.77779)"
     id="g3104">
    <path
       style="fill:#143b5e;fill-opacity:1;fill-rule:evenodd;stroke:none"
       d=""
       id="path3096" />
    <path
       style="fill:#143b5e;fill-opacity:1;fill-rule:evenodd;stroke:none"
       d=""
       id="path3098" />
    <path
       style="fill:#143b5e;fill-opacity:1;fill-rule:evenodd;stroke:none"
       d=""
       id="path3100" />
    <path
       d="m -483.82087,299.38964 c 6.91828,-0.85294 14.60262,-0.3159 21.32345,1.57951 37.1186,10.47219 49.84159,55.93062 25.33542,84.94631 -4.90439,5.79682 -10.63804,9.91935 -17.43784,13.22844 -8.12661,3.95668 -15.55033,5.04655 -24.48249,4.94388 -35.44431,-0.41857 -59.30288,-37.58456 -47.62237,-70.28841 6.96566,-19.51491 22.87137,-31.13224 42.88383,-34.40973 z m -20.8338,-39.13249 c 5.97056,-1.71376 12.33601,-2.61409 18.46453,-3.68816 0,0 11.84636,0 11.84636,0 0,0.008 7.24997,-25.43809 7.24997,-25.43809 0,0 40.85415,11.35671 40.85415,11.34092 0,0 -6.38124,24.91685 -6.39703,24.79838 8.1345,4.2331 15.66089,9.62715 22.26326,16.01628 0.9714,0.93982 1.91911,1.90332 2.85102,2.87472 -0.008,0.008 22.91876,-12.52555 22.92667,-12.52555 -0.008,0 21.10231,36.32884 21.10231,36.32884 0,0 -22.32644,13.96291 -22.31065,13.92343 2.96949,10.10889 4.20941,20.59687 3.79084,30.99797 -0.0316,0.0632 25.00372,6.55499 24.93264,6.62607 -0.0395,-0.0711 -7.87388,33.75423 -10.71701,41.06738 -0.0316,-0.10267 -24.92474,-6.8393 -24.92474,-6.85509 -4.68326,9.1059 -10.85916,17.53261 -18.45663,24.82208 -0.0316,0.079 12.05959,22.78449 11.95692,22.63444 0.0553,0.15005 -36.57366,21.41822 -36.51838,21.37084 -0.0553,0 -13.37849,-21.76572 -13.49695,-21.85259 -10.29054,3.07215 -20.70744,4.16992 -32.21421,4.03566 0,0 -6.01795,25.02741 -6.07323,25.0748 0,0 -40.3724,-10.95394 -40.42769,-10.95394 0.10267,0.14216 6.07324,-25.32752 6.03375,-25.25644 -9.49288,-5.07814 -17.888,-11.62523 -24.96423,-19.24639 0,0 -22.37383,13.14946 -22.37383,13.14946 0,0.008 -20.77062,-36.51838 -20.77852,-36.51838 0.008,-0.008 21.86049,-13.23633 21.85259,-13.23633 -3.20641,-10.21157 -4.71485,-20.99965 -4.28838,-31.9141 0.008,0.0237 -24.92475,-6.33385 -24.93264,-6.34965 0.0316,0.0158 10.34582,-40.80677 10.33792,-40.78307 0.008,0.0553 25.7224,6.1759 25.75399,6.20749 4.96757,-9.39811 11.36461,-17.76954 18.96998,-24.89316 0.0474,0.0711 -12.65192,-22.72922 -12.65192,-22.7529 0.008,0 19.04895,-11.15138 36.62105,-20.72324 0.0316,-0.0158 13.73388,21.72623 13.71809,21.71832 z"
       id="path3102"
       style="fill:#143b5e;fill-opacity:1;stroke:none;stroke-width:0.78975737" />
  </g>
  <g
     aria-label="Shelter"
     transform="matrix(4.8970287,0,0,4.8970287,-3731.3668,-687.90923)"
     style="font-style:normal;font-weight:normal;font-size:40px;line-height:1.25;font-family:sans-serif;letter-spacing:0px;word-spacing:0px;fill:#375ea8;fill-opacity:1;fill-rule:nonzero;stroke:none"
     id="flowRoot1365">
    <g
       id="g1397"
       style="fill:#375ea8;fill-opacity:1">
      <path
         sodipodi:nodetypes="cccccccccscccccsccccccccccccsccsc"
         inkscape:connector-curvature="0"
         id="path1373"
         style="font-style:normal;font-variant:normal;font-weight:normal;font-stretch:normal;font-size:192px;font-family:'RTL-Adam Script';-inkscape-font-specification:'RTL-Adam Script';fill-rule:nonzero;fill:#375ea8;fill-opacity:1"
         d="m 973.43753,260.47584 c -0.5625,1.8125 -2.1875,3.03125 -4.875,3.65625 -2.6875,0.5625 -5.3125,0.4375 -7.875,-0.375 -2.5,-0.8125 -3.90625,-2.09375 -4.21875,-3.84375 0.5625,-6.5625 -0.5625,-11.375 -3.375,-14.4375 -2.75,-3.0625 -6.6875,-4.59375 -11.8125,-4.59375 -4,-0.125 -7.53125,1.15625 -10.59375,3.84375 -3,2.6875 -4.6875,6.96875 -5.0625,12.84375 -0.25,3.3125 0.25,6.59375 1.5,9.84375 1.3125,3.25 3.09375,6.28125 5.34375,9.09375 2.25,2.8125 4.75,5.6875 7.5,8.625 2.75,2.875 5.5,5.84375 8.25,8.90625 2.8125,3.0625 5.34375,6.1875 7.59375,9.375 2.25,3.125 4,6.65625 5.25,10.59375 1.3125,3.9375 1.84375,7.69185 1.59375,11.81685 -0.625,11.6875 -4.96875,20.6875 -13.03125,27 -8.0625,6.3125 -18.75,9.40625 -32.0625,9.28125 l -23.67828,0 c 0.81787,-3.13677 7.76251,-14.85359 7.76251,-14.85359 1.69735,1.53837 12.91684,1.1446 17.60327,1.25984 6.6875,0.0625 11.9375,-1.53563 15.75,-5.3481 3.8125,-3.875 5.90625,-9.34375 6.28125,-16.40625 0.1875,-3.5625 -0.40625,-7.03125 -1.78125,-10.40625 -1.3125,-3.4375 -3.15625,-6.59375 -5.53125,-9.46875 -2.3125,-2.875 -4.875,-5.75 -7.6875,-8.625 -2.8125,-2.9375 -5.625,-5.90625 -8.4375,-8.90625 -2.75,-3.0625 -5.25,-6.1875 -7.5,-9.375 -2.25,-3.25 -3.96875,-6.875 -5.15625,-10.875 -1.1875,-4.0625 -1.5625,-8.28125 -1.125,-12.65625 0.9375,-9.375 4.6875,-16.65625 11.25,-21.84375 6.625,-5.1875 15.4375,-7.75 26.4375,-7.6875 11.625,0.25 20.25,3.40625 25.875,9.46875 5.625,6.0625 7.5625,14.09375 5.8125,24.09375 z" />
      <path
         id="path1375"
         style="font-style:normal;font-variant:normal;font-weight:normal;font-stretch:normal;font-size:192px;font-family:'RTL-Adam Script';-inkscape-font-specification:'RTL-Adam Script';fill-rule:nonzero;fill:#375ea8;fill-opacity:1"
         d="m 1006.0078,229.41722 q 1.125,-1.125 3.6563,-1.5 2.5312,-0.46875 5.4375,-0.0937 2.9062,0.28125 5.5312,1.03125 2.625,0.65625 4.2188,1.96875 1.5937,1.3125 1.3125,2.8125 -6.375,15.375 -20.1563,64.125 17.25,-19.5 31.3125,-19.5 11.25,-0.0937 14.8125,7.21875 3.6563,7.3125 0.1875,19.40625 -1.5,5.4375 -4.4062,15.09375 -5.4375,18.09375 -5.625,22.96875 -0.094,5.53125 3.6562,5.34375 5.5313,-0.0937 13.125,-9.28125 7.6875,-9.28125 12.8438,-21.46875 0.6562,-1.03125 2.3437,-0.65625 1.7813,0.375 3.2813,1.875 1.5937,1.5 1.0312,2.625 -18.4687,39.46875 -40.5,40.3125 -5.8125,0.28125 -9.6562,-1.21875 -3.75,-1.5 -5.4375,-4.3125 -1.5938,-2.90625 -2.1563,-6.75 -0.4687,-3.9375 0.375,-8.4375 0.4688,-3.65625 2.1563,-10.21875 1.7812,-6.5625 4.125,-14.8125 2.4375,-8.25 2.9062,-10.125 0.6563,-2.53125 0.8438,-4.40625 0.2812,-1.875 0,-3.75 -0.1875,-1.96875 -1.5938,-3 -1.4062,-1.03125 -3.8437,-0.9375 -4.6875,0.0937 -11.4375,5.90625 -6.6563,5.71875 -12,13.5 -7.12504,26.25 -11.15629,44.71875 -0.5625,2.15625 -7.59375,3.09375 -8.625,1.125 -12.65625,-1.21875 -2.34375,-1.3125 -1.78125,-3.5625 8.0625,-33.5625 18.46875,-69.46875 10.40625,-36 18.37499,-57.28125 z" />
      <path
         id="path1377"
         style="font-style:normal;font-variant:normal;font-weight:normal;font-stretch:normal;font-size:192px;font-family:'RTL-Adam Script';-inkscape-font-specification:'RTL-Adam Script';fill-rule:nonzero;fill:#375ea8;fill-opacity:1"
         d="m 1119.1641,278.63597 q 7.7812,0.28125 13.2187,3.375 5.5313,3.09375 7.875,7.78125 2.3438,4.59375 2.25,10.21875 -0.094,5.625 -2.8125,10.875 -5.4375,10.96875 -18.2812,15.375 -12.75,4.40625 -29.3438,0.5625 -0.8437,9.1875 4.2188,14.8125 5.1562,5.625 15.1875,6.65625 5.25,0.5625 10.9687,-0.75 5.7188,-1.3125 11.9063,-4.59375 6.1875,-3.28125 11.9062,-9.84375 5.8125,-6.5625 9.75,-15.5625 0.75,-0.9375 2.4375,-0.5625 1.7813,0.375 3.375,1.875 1.5938,1.40625 1.125,2.53125 -18.6562,41.71875 -56.8125,40.5 -8.5312,-0.28125 -15.2812,-2.71875 -6.75,-2.53125 -10.9688,-6.65625 -4.125,-4.125 -6.75,-9.5625 -2.625,-5.4375 -2.8125,-11.53125 -0.1875,-6.09375 1.0313,-12.65625 3.8437,-18.5625 17.25,-29.625 13.4062,-11.0625 30.5625,-10.5 z m -2.4375,13.59375 q -6.75,-0.375 -13.6875,7.03125 -6.9375,7.40625 -9.5625,17.71875 10.3125,1.59375 17.4375,-1.59375 7.2187,-3.1875 10.2187,-9.75 2.625,-4.78125 1.6875,-9 -0.9375,-4.3125 -6.0937,-4.40625 z" />
      <path
         id="path1379"
         style="font-style:normal;font-variant:normal;font-weight:normal;font-stretch:normal;font-size:192px;font-family:'RTL-Adam Script';-inkscape-font-specification:'RTL-Adam Script';fill-rule:nonzero;fill:#375ea8;fill-opacity:1"
         d="m 1192.9453,231.76097 q 5.4375,-3.65625 11.25,-4.3125 5.8125,-0.75 10.4063,1.5 4.5937,2.25 7.875,6.9375 3.2812,4.59375 3.6562,11.625 0.375,6.9375 -2.1562,15.75 -4.875,16.59375 -17.1563,29.8125 -12.1875,13.125 -30.6562,20.8125 -7.2188,33.28125 9.6562,34.59375 9.8438,0.75 19.3125,-8.4375 9.5625,-9.1875 16.0313,-22.6875 0.6562,-0.84375 2.3437,-0.375 1.6875,0.375 3.1875,1.875 1.5938,1.40625 1.125,2.53125 -3.1875,6.46875 -5.9062,11.25 -2.625,4.6875 -6.1875,9.9375 -3.5625,5.25 -7.4063,8.71875 -3.75,3.46875 -8.4375,6.28125 -4.5937,2.8125 -10.2187,3.84375 -5.5313,1.03125 -11.9063,0.28125 -9.375,-1.125 -14.8125,-6.5625 -5.4375,-5.53125 -6.8437,-14.8125 -1.4063,-9.28125 -0.375,-20.15625 1.0312,-10.875 4.3125,-24.84375 5.25,-22.125 13.7812,-39.375 8.5313,-17.25 19.125,-24.1875 z m 13.2188,10.59375 q -3.5625,-0.0937 -7.4063,6.09375 -3.8437,6.1875 -8.3437,17.71875 -6.75,17.0625 -11.3438,34.125 7.4063,-5.0625 13.7813,-13.3125 6.375,-8.25 10.4062,-17.4375 4.875,-11.25 5.8125,-18.9375 0.9375,-7.6875 -2.9062,-8.25 z" />
      <path
         id="path1381"
         style="font-style:normal;font-variant:normal;font-weight:normal;font-stretch:normal;font-size:192px;font-family:'RTL-Adam Script';-inkscape-font-specification:'RTL-Adam Script';fill-rule:nonzero;fill:#375ea8;fill-opacity:1"
         d="m 1243.3828,361.69847 q -5.4375,0.0937 -9.6562,-1.3125 -4.2188,-1.40625 -6.9375,-3.75 -2.7188,-2.34375 -4.4063,-6.1875 -1.5937,-3.84375 -2.3437,-7.6875 -0.75,-3.9375 -0.5625,-9.46875 0.1875,-5.53125 0.6562,-10.21875 0.5625,-4.78125 1.875,-11.25 1.4063,-6.46875 2.5313,-11.25 1.125,-4.78125 2.9062,-11.4375 h -5.8125 q -2.7187,-1.6875 -1.875,-6.65625 0.9375,-5.0625 3.4688,-6 h 7.6875 q 9.0937,-29.53125 14.7187,-43.78125 1.3125,-1.875 6.2813,-1.96875 4.9687,-0.0937 9.4687,1.59375 4.5938,1.59375 4.6875,4.21875 -6.6562,18.5625 -13.125,39.9375 h 16.125 q 2.5313,2.0625 1.6875,7.03125 -0.8437,4.875 -3.1875,5.625 h -18.0937 q -5.25,18 -7.4063,28.21875 -7.0312,30.65625 5.3438,30.9375 8.3437,0.1875 17.5312,-8.4375 9.2813,-8.625 15.2813,-22.3125 0.75,-0.9375 2.4375,-0.5625 1.6875,0.375 3.1875,1.875 1.5937,1.5 1.125,2.71875 -17.25,39.84375 -43.5938,40.125 z" />
      <path
         id="path1383"
         style="font-style:normal;font-variant:normal;font-weight:normal;font-stretch:normal;font-size:192px;font-family:'RTL-Adam Script';-inkscape-font-specification:'RTL-Adam Script';fill-rule:nonzero;fill:#375ea8;fill-opacity:1"
         d="m 1327.5703,278.63597 q 7.7813,0.28125 13.2188,3.375 5.5312,3.09375 7.875,7.78125 2.3437,4.59375 2.25,10.21875 -0.094,5.625 -2.8125,10.875 -5.4375,10.96875 -18.2813,15.375 -12.75,4.40625 -29.3437,0.5625 -0.8438,9.1875 4.2187,14.8125 5.1563,5.625 15.1875,6.65625 5.25,0.5625 10.9688,-0.75 5.7187,-1.3125 11.9062,-4.59375 6.1875,-3.28125 11.9063,-9.84375 5.8125,-6.5625 9.75,-15.5625 0.75,-0.9375 2.4375,-0.5625 1.7812,0.375 3.375,1.875 1.5937,1.40625 1.125,2.53125 -18.6563,41.71875 -56.8125,40.5 -8.5313,-0.28125 -15.2813,-2.71875 -6.75,-2.53125 -10.9687,-6.65625 -4.125,-4.125 -6.75,-9.5625 -2.625,-5.4375 -2.8125,-11.53125 -0.1875,-6.09375 1.0312,-12.65625 3.8438,-18.5625 17.25,-29.625 13.4063,-11.0625 30.5625,-10.5 z m -2.4375,13.59375 q -6.75,-0.375 -13.6875,7.03125 -6.9375,7.40625 -9.5625,17.71875 10.3125,1.59375 17.4375,-1.59375 7.2188,-3.1875 10.2188,-9.75 2.625,-4.78125 1.6875,-9 -0.9375,-4.3125 -6.0938,-4.40625 z" />
      <path
         id="path1385"
         style="font-style:normal;font-variant:normal;font-weight:normal;font-stretch:normal;font-size:192px;font-family:'RTL-Adam Script';-inkscape-font-specification:'RTL-Adam Script';fill-rule:nonzero;fill:#375ea8;fill-opacity:1"
         d="m 1368.2578,327.76097 q -1.0312,1.78125 -4.4062,0 -3.375,-1.78125 -2.4375,-3.65625 5.9062,-11.90625 9.375,-21 3.5625,-9.1875 6.9375,-21.46875 -7.0313,-10.03125 -3,-17.625 2.625,-4.78125 7.875,-5.8125 5.5312,-0.9375 8.3437,3.1875 3.0938,4.5 0.9375,12.84375 2.0625,2.15625 5.8125,5.625 3.8438,3.375 6.4688,5.8125 2.625,2.4375 5.4375,5.8125 2.8125,3.375 4.0312,6.09375 1.3125,2.71875 1.0313,6 -0.1875,3.1875 -2.4375,6.09375 -13.7813,17.34375 -14.5313,28.6875 -0.6562,9.75 7.875,9.75 7.7813,0 17.0625,-7.59375 9.2813,-7.59375 16.5,-23.15625 0.6563,-0.84375 2.25,-0.375 1.6875,0.46875 3.1875,1.96875 1.5938,1.40625 1.125,2.4375 -8.0625,18.65625 -19.875,29.53125 -11.8125,10.875 -27.75,10.78125 -10.875,-0.0937 -16.5937,-5.71875 -5.7188,-5.71875 -5.7188,-15 0,-5.71875 2.625,-12.65625 2.7188,-6.9375 5.5313,-11.625 2.8125,-4.6875 7.7812,-12 1.2188,-1.96875 1.3125,-3.84375 0.1875,-1.96875 -1.0312,-4.03125 -1.125,-2.15625 -2.0625,-3.46875 -0.9375,-1.3125 -3.0938,-3.5625 -2.0625,-2.25 -2.625,-2.90625 -5.9062,21.375 -15.9375,40.875 z" />
    </g>
  </g>
</svg>
